<svg width="31" height="31" viewBox="0 0 31 31" fill="none" xmlns="http://www.w3.org/2000/svg">
<g filter="url(#filter0_d_312_121)">
<path d="M13.393 18.6081C15.4206 18.6081 17.3138 17.9547 18.8529 16.8658L24.6426 22.6007C24.9113 22.8669 25.2655 23 25.632 23C26.4259 23 27 22.395 27 21.6207C27 21.2577 26.8779 20.919 26.609 20.6528L20.8561 14.9421C22.0653 13.3693 22.7859 11.4213 22.7859 9.30406C22.7859 4.18622 18.5597 0 13.393 0C8.214 0 4 4.18622 4 9.30406C4 14.4218 8.214 18.6081 13.393 18.6081ZM13.393 16.5997C9.34996 16.5997 6.0276 13.2967 6.0276 9.30406C6.0276 5.31142 9.34996 2.00845 13.393 2.00845C17.4238 2.00845 20.7583 5.31142 20.7583 9.30406C20.7583 13.2967 17.4238 16.5997 13.393 16.5997Z" fill="black"/>
</g>
<defs>
<filter id="filter0_d_312_121" x="0" y="0" width="31" height="31" filterUnits="userSpaceOnUse" color-interpolation-filters="sRGB">
<feFlood flood-opacity="0" result="BackgroundImageFix"/>
<feColorMatrix in="SourceAlpha" type="matrix" values="0 0 0 0 0 0 0 0 0 0 0 0 0 0 0 0 0 0 127 0" result="hardAlpha"/>
<feOffset dy="4"/>
<feGaussianBlur stdDeviation="2"/>
<feComposite in2="hardAlpha" operator="out"/>
<feColorMatrix type="matrix" values="0 0 0 0 0 0 0 0 0 0 0 0 0 0 0 0 0 0 0.25 0"/>
<feBlend mode="normal" in2="BackgroundImageFix" result="effect1_dropShadow_312_121"/>
<feBlend mode="normal" in="SourceGraphic" in2="effect1_dropShadow_312_121" result="shape"/>
</filter>
</defs>
</svg>
